<svg id="Слой_1" data-name="Слой 1" xmlns="http://www.w3.org/2000/svg" viewBox="0 0 100 28.92">
  <title>chevron_up</title>
  <path d="M124.5,88.5c-4.5-1.41-8.9-3-13.27-4.72s-8.67-3.48-13-5.33-8.53-3.77-12.75-5.74-8.41-4-12.58-6.08h3.12L69.8,69.72l-6.32,3c-4.22,2-8.46,3.9-12.75,5.74s-8.6,3.64-13,5.33S29,87.1,24.5,88.5c3.83-2.76,7.77-5.3,11.73-7.79s8-4.85,12-7.17S56.41,69,60.52,66.78l6.18-3.25,6.24-3.16,1.55-.79,1.57.79c4.17,2.1,8.31,4.22,12.42,6.42s8.2,4.44,12.25,6.76,8.06,4.7,12,7.17S120.67,85.74,124.5,88.5Z" transform="translate(-24.5 -59.58)"/>
</svg>
