<svg id="Слой_1" data-name="Слой 1" xmlns="http://www.w3.org/2000/svg" viewBox="0 0 100 28.92">
  <title>chevron_down</title>
  <path d="M124.5,62.5c-3.83,2.76-7.77,5.29-11.73,7.78s-8,4.85-12,7.17S92.59,82,88.48,84.21s-8.25,4.32-12.42,6.42l-1.57.79-1.55-.79L66.7,87.47l-6.18-3.25c-4.11-2.2-8.2-4.43-12.25-6.76s-8.07-4.7-12-7.17-7.9-5-11.73-7.79c4.51,1.4,8.9,3,13.27,4.71s8.68,3.48,13,5.33,8.53,3.77,12.75,5.74l6.32,3,6.26,3.09H72.94c4.17-2.07,8.36-4.11,12.58-6.08s8.47-3.9,12.75-5.74,8.6-3.64,13-5.33S120,63.91,124.5,62.5Z" transform="translate(-24.5 -62.5)"/>
</svg>
