<svg id="Слой_1" data-name="Слой 1" xmlns="http://www.w3.org/2000/svg" xmlns:xlink="http://www.w3.org/1999/xlink" viewBox="0 0 150 150">
  <defs>
    <clipPath id="clip-path">
      <path d="M85,111.74c1.68,4.37,3.31,8.76,4.71,13.27-2.76-3.83-5.3-7.77-7.79-11.73s-4.85-8-7.17-12S70.15,93.1,68,89L64.7,82.81l-3.16-6.24L60.75,75l.79-1.57C63.64,69.28,65.76,65.14,68,61s4.44-8.2,6.76-12.25,4.7-8.06,7.17-12,5-7.9,7.78-11.73c-1.41,4.5-3,8.9-4.72,13.27s-3.48,8.67-5.33,13S75.85,59.77,73.88,64c-1.72,3.69-3.5,7.37-5.31,11l2.32,4.7,3,6.32c2,4.22,3.9,8.46,5.74,12.75S83.27,107.38,85,111.74Z" fill="none" stroke="#000" stroke-miterlimit="10"/>
    </clipPath>
    <pattern id="chev_left_pat" data-name="chev_left_pat" width="150" height="150" patternTransform="translate(-157 -1)" patternUnits="userSpaceOnUse" viewBox="0 0 150 150">
      <rect width="150" height="150" fill="none"/>
      <g>
        <g clip-path="url(#clip-path)">
          <path id="path144" d="M87.21,27.64c0-.16.2-.17.32-.05a16.75,16.75,0,0,0,2.53,2.15c.28.19,0,.47-.3.27a14.16,14.16,0,0,1-2-1.77c.33.93.91,1.9.7,2.83a.22.22,0,0,1-.35.1,7.18,7.18,0,0,1-1.59-1.38c.28.75.58,1.52.79,2.31.06.23-.26.29-.46.13a13.38,13.38,0,0,1-1.51-1.38c.37,1.24.87,2.53,1.18,3.88.05.23-.29.34-.49.15a13.33,13.33,0,0,1-1.06-1.07,15.25,15.25,0,0,1,1,3.26.27.27,0,0,1-.44.22,7.94,7.94,0,0,1-1.33-1.1c.6,1.33,1.14,2.78.64,4.05-.08.2-.35.18-.53,0a16.34,16.34,0,0,1-1.52-1.47,9.44,9.44,0,0,1,.58,4.72c-.05.27-.35.33-.57.13A10,10,0,0,1,81,41.76a13.56,13.56,0,0,1,.59,5,.33.33,0,0,1-.59.14A10.24,10.24,0,0,1,79.64,45a9.85,9.85,0,0,1-.25,4.91.25.25,0,0,1-.48.06,21.67,21.67,0,0,1-1.35-2.85,4.43,4.43,0,0,0,.06.51c0,.21-.27.3-.31.08-.11-.64-.11-1.26-.23-1.88,0-.2.26-.35.35-.13a36,36,0,0,0,1.63,3.46c.64-2.51-.21-5.15-.65-7.44a.3.3,0,0,1,.59-.12,11.32,11.32,0,0,0,2,4.21c0-2-.69-4-1.07-5.86a.33.33,0,0,1,.61-.21,13.64,13.64,0,0,0,2.18,3,12.78,12.78,0,0,0-1.09-5.28c-.12-.33.33-.46.55-.18a16.2,16.2,0,0,0,2.11,2.2c.27-1.45-.84-3.3-1.37-4.61-.1-.26.27-.48.5-.24a22.48,22.48,0,0,0,1.76,1.76,40.57,40.57,0,0,0-1.5-4.48c-.1-.29.37-.38.51-.08a7.4,7.4,0,0,0,1.51,2c-.37-1.33-.85-2.62-1.12-3.85,0-.19.28-.3.44-.13.5.51,1,1,1.53,1.5-.27-.88-.6-1.73-.83-2.57-.06-.2.29-.22.43-.06A11.1,11.1,0,0,0,88,30.6a10.92,10.92,0,0,0-.75-3ZM75.89,48.78c-.07-.17-.32-.09-.32.08.05,3,1.2,6.26.54,9.61a13,13,0,0,1-2.27-4.88.31.31,0,1,0-.6.17c.47,2.46,1.07,5.31.45,8.1a35.13,35.13,0,0,0-2.16-5c-.23-.39-.71,0-.67.42.32,2.83,1.2,6.26.12,9.45a17.59,17.59,0,0,1-2-5.23c-.12-.49-.8-.24-.81.24,0,3.09,1,6.49.35,10a27,27,0,0,1-1.73-5.35c-.11-.51-.8-.14-.72.35.49,2.84.82,5.87,1.08,9.13a23,23,0,0,1-2.52-6.45c-.06-.24-.34-.06-.33.17.06,3.61.37,7.4.35,11.56A60.78,60.78,0,0,1,62.48,74c-.08-.34-.48-.09-.46.25.09,2,.18,4.11.19,6.32,0,2,.32,4.88-.46,7-.25.7.42,1.13.7.46.79-2,.68-4.3.69-6.18,0-1.52,0-3-.17-4.46.52,1.84,1,3.75,1.7,5.63.12.34.54.22.57-.24a74.59,74.59,0,0,0-.44-11.33c.21.79.45,1.56.7,2.34a14.83,14.83,0,0,0,1.87,3.88c.24.35.64,0,.62-.48-.09-1.85-.24-3.63-.42-5.34a17.41,17.41,0,0,0,.78,1.7c.19.37.63.12.74-.27a19.91,19.91,0,0,0,.24-7.62,11.38,11.38,0,0,0,1.37,2.55.41.41,0,0,0,.73-.12c1.24-2.82,1-5.68.59-8.34.45,1.16.85,2.38,1.38,3.55.19.42.61.28.74-.11a13.14,13.14,0,0,0,.39-5.92A9,9,0,0,0,76,59.52c.2.22.48.13.57-.18.88-3.27-.42-6.49-.66-9.42a16.24,16.24,0,0,0,2.48,4.82c.16.2.39.08.45-.12a3.26,3.26,0,0,0,0-1.46c0-.17-.27-.25-.3,0a6.13,6.13,0,0,1-.12.8,24.52,24.52,0,0,1-2.6-5.13"/>
          <path id="path144-2" data-name="path144" d="M91.22,124.27c.14.06,0,.19-.2.19a22.45,22.45,0,0,0-3.24.26c-.32,0-.32-.23,0-.28a17,17,0,0,1,2.63-.19,6.22,6.22,0,0,1-2.5-1c-.07-.07,0-.2.16-.24a9.32,9.32,0,0,1,2.08-.17c-.73-.23-1.5-.44-2.21-.71-.2-.08,0-.29.21-.32a18.17,18.17,0,0,1,2.06-.15c-1.17-.42-2.45-.77-3.63-1.26-.21-.09-.06-.34.21-.36.52,0,1-.07,1.51-.07a17.94,17.94,0,0,1-3-1.06c-.17-.09-.13-.32.12-.37a10.23,10.23,0,0,1,1.7-.24c-1.38-.31-2.79-.71-3.39-1.64-.09-.14.09-.3.31-.33.71-.11,1.41-.17,2.11-.21a9.08,9.08,0,0,1-3.89-2c-.17-.17,0-.39.27-.43a12.9,12.9,0,0,1,2.54-.14,13.07,13.07,0,0,1-4.18-2.16c-.18-.17,0-.46.28-.48a11.86,11.86,0,0,1,2.39,0A8.74,8.74,0,0,1,80,108.23c-.11-.16,0-.39.27-.37a21.8,21.8,0,0,1,3.1.5l-.44-.23c-.18-.08,0-.35.15-.26.58.25,1.06.58,1.63.82a.17.17,0,0,1-.14.32c-1.24-.24-2.48-.49-3.78-.63,1.5,1.75,4.1,2.53,6.18,3.42.34.15,0,.6-.32.47a12.49,12.49,0,0,0-4.56-.83,26.69,26.69,0,0,0,5.19,2.29c.3.13.15.56-.27.51a16.7,16.7,0,0,0-3.75-.12,13.32,13.32,0,0,0,4.7,2c.34.1.11.45-.25.44a21.09,21.09,0,0,0-3.07.19c.89.89,3,1.14,4.36,1.49.26.07.16.41-.19.42-.84,0-1.66,0-2.5.16,1.37.59,3,.93,4.35,1.37.29.09,0,.41-.3.34a9.7,9.7,0,0,0-2.55-.16c1.23.45,2.5.83,3.61,1.3.16.07,0,.3-.23.31-.72,0-1.43,0-2.16.1.83.28,1.68.53,2.45.81.19.08,0,.27-.27.27a15.32,15.32,0,0,0-2.61.07,12,12,0,0,0,2.66,1.06Zm-8-18c.19,0,.3-.2.16-.29-2.38-1.53-5.72-2.37-7.93-4.66a13.1,13.1,0,0,1,5.34.75c.43.12.69-.42.28-.59-2.3-.94-5-2-6.81-4a35.5,35.5,0,0,0,5.42.81c.48,0,.47-.65.12-.83-2.56-1.27-5.92-2.34-7.85-5.08a16.65,16.65,0,0,1,5.6,1c.49.15.75-.64.34-.92-2.59-1.75-6.06-2.69-8.65-5.24a22.81,22.81,0,0,1,5.61,1.23c.51.17.66-.76.17-1a84,84,0,0,1-8.45-4,20.08,20.08,0,0,1,7.09.92c.25.08.28-.33.07-.46-3.2-2-6.68-3.83-10.27-6.23a47.79,47.79,0,0,1,7.64,1.59c.35.1.4-.52.08-.7-1.87-1.08-3.8-2.2-5.77-3.47-1.76-1.14-4.48-2.44-6-4.67-.49-.73-1.21-.12-.76.62,1.3,2.11,3.41,3.32,5,4.41a39.18,39.18,0,0,0,4,2.38c-1.93-.44-3.89-.93-5.86-1.21-.36,0-.48.5-.1.79a63.84,63.84,0,0,0,10,6c-.82-.22-1.64-.4-2.46-.57a12.47,12.47,0,0,0-4.38-.14c-.42.06-.34.69.06.92,1.6.94,3.17,1.77,4.71,2.54A16.81,16.81,0,0,0,67.82,86c-.41,0-.45.58-.19.9a17.08,17.08,0,0,0,6.18,4.45,10.42,10.42,0,0,0-3-.07.49.49,0,0,0-.33.75c1.54,2.66,4,4,6.42,5.06-1.23-.23-2.48-.54-3.74-.69-.45-.06-.58.38-.35.7a11.33,11.33,0,0,0,4.46,3.48,9.36,9.36,0,0,0-2.69.06.33.33,0,0,0-.2.56c2,2.4,5.33,3.07,7.8,4.44a17.33,17.33,0,0,0-5.36-.64.24.24,0,0,0-.18.4,2.73,2.73,0,0,0,1.09.77c.15.08.36-.07.22-.19s-.37-.33-.54-.5a26.18,26.18,0,0,1,5.71.72"/>
        </g>
        <path d="M85,111.74c1.68,4.37,3.31,8.76,4.71,13.27-2.76-3.83-5.3-7.77-7.79-11.73s-4.85-8-7.17-12S70.15,93.1,68,89L64.7,82.81l-3.16-6.24L60.75,75l.79-1.57C63.64,69.28,65.76,65.14,68,61s4.44-8.2,6.76-12.25,4.7-8.06,7.17-12,5-7.9,7.78-11.73c-1.41,4.5-3,8.9-4.72,13.27s-3.48,8.67-5.33,13S75.85,59.77,73.88,64c-1.72,3.69-3.5,7.37-5.31,11l2.32,4.7,3,6.32c2,4.22,3.9,8.46,5.74,12.75S83.27,107.38,85,111.74Z" fill="none" stroke="#000" stroke-miterlimit="10"/>
      </g>
    </pattern>
  </defs>
  <rect width="150" height="150" fill="url(#chev_left_pat)"/>
</svg>
