<svg id="Слой_1" data-name="Слой 1" xmlns="http://www.w3.org/2000/svg" viewBox="0 0 310.04 197.86">
  <title>crosshatch</title>
  <path id="path144" d="M241.57,153.65c-7,3.75-13.17,9.34-21.17,11.54,1.07-4.88,4.26-9.14,7-13.56.72-1.15-.91-2.73-2.36-1.86-5.68,3.41-11,7.21-16.55,10.74a115.12,115.12,0,0,1,5.09-11c.63-1.25-1.55-2.37-2.78-1.68-8.22,4.63-15.66,10.09-23.57,15a34.06,34.06,0,0,1,8.41-11.84c1.61-1.44-.9-3.28-2.6-2-8.14,5.85-15.53,12.53-24.44,17.58,1-4,3.11-7.71,4.83-11.62.69-1.6-2.1-2.66-3.4-1.56-6.41,5.42-13.72,14.21-23.19,16.25a56.93,56.93,0,0,1,5.59-13.46c.89-1.55-1.45-3.1-3-1.83-7.45,6.12-15.33,12.83-25.35,15.85,1.8-5.38,5.08-10.17,8.81-14.89,1.3-1.65-1.55-2.92-3.11-1.89-8.39,5.54-16.09,12.48-25.88,16.35,3-6.29,8.22-11.46,14.36-16.08,1.69-1.26-.83-3.05-2.47-1.95-9.84,6.63-19.48,15-32.14,17.51a131.27,131.27,0,0,1,10.3-12.52c.72-.81-.82-1.53-1.6-1-2.4,1.68-5.1,2.94-7.49,4.61-.83.58.39,1.44,1.17.93s1.35-.83,2-1.21a72.6,72.6,0,0,0-8.14,10.12c-.61.93.42,1.68,1.52,1.56,8.32-.89,15.51-4.34,22.22-8.45a34.67,34.67,0,0,0-4.85,8.82c-.41,1.12,1,2.26,2.39,1.88,8.7-2.45,15.72-7.27,22.59-12.21a35.31,35.31,0,0,0-4.33,10.32c-.27,1.21,1,2.23,2.44,1.92,9.2-1.92,16.7-6.77,23.53-12.1a53.82,53.82,0,0,0-3.14,9.27,1.74,1.74,0,0,0,2,2c9-.6,15.77-5.95,21.85-11.44a27.69,27.69,0,0,0-2.07,8c-.1,1.25,1.82,1.94,3,1.36a102.49,102.49,0,0,0,17.74-11.64,55.25,55.25,0,0,0-3.24,7.17c-.49,1.31,1.53,2.54,2.92,1.76,8.09-4.53,15.32-10,23-14.89a54.9,54.9,0,0,0-4.15,10.43c-.33,1.26,1.42,2.57,2.87,1.74,5.08-2.91,9.71-6.3,14.44-9.58-2.07,3.45-3.77,7-4.17,10.95-.1,1,1.27,1.54,2.29,1.38,8.21-1.34,13.66-6.58,20-10.68a51.55,51.55,0,0,0-5.89,14.33c-.43,1.85,3.15,2.56,3.51.76,1.24-6.27,3.89-12.08,7-17.87.49-.91-.63-2.07-1.81-1.43ZM76.4,157.6c-4.8,5.8-10.12,11.4-13,18.06,1.1-.26,2.15-.57,3.3-.95a.6.6,0,0,1,.57,1.06,12.76,12.76,0,0,1-5.48,2.29c-.89.14-1.9-.43-1.59-1.26C62.57,170.4,67.16,165.2,72,160c-10.56,6.2-18.82,15.91-31.87,18.23-1.16.21-2.1-.53-1.89-1.49a24.63,24.63,0,0,1,3.59-8.22c-5.59,3.9-11.8,7.1-19.07,8.05-1.42.18-2.71-.82-1.95-2,2.18-3.35,4.88-6.46,7.31-9.69-7,5.42-14.37,10.45-24.33,10.93A1.59,1.59,0,0,1,2,174a27.32,27.32,0,0,1,3.65-7.58c-5.6,4.3-11.25,8.49-18.85,10.11-1.06.23-2.46-.59-2-1.58a43.08,43.08,0,0,1,2.32-4.35c-3.46,2.8-7,5.51-10.74,8.09-.92.64-2.38.07-2.1-1a31.71,31.71,0,0,1,4.64-9.9c1.21-1.74,2.45-3.46,3.8-5.13-7,5.69-13.73,11.51-22,16-.87.48-1.79-.4-1.38-1.09,2.29-3.87,5-7.56,7.6-11.28a82.22,82.22,0,0,1-8.09,6.17c-3.35,2.27-7.2,5.3-11.7,5.69a1.08,1.08,0,1,1-.37-2.12c4.82-.71,9.33-4.92,12.89-7.46,4.1-2.93,8-6,11.9-9.1.67-.53,1.92.13,1.38.83a115,115,0,0,0-10.23,15.08c8.06-5.24,15.32-11.22,23.16-16.69.51-.36,1.48.09,1,.63-3.95,4.81-7.48,10-9.35,15.65A219.16,219.16,0,0,0-3.83,159.12c1.05-1,3.4.32,2.36,1.43a61.19,61.19,0,0,0-9.35,12.53c9.57-3.36,16.21-11.2,24.57-16.15,1.36-.8,3.56.77,2.46,1.94-4,4.26-7.91,8.64-9.94,13.78C17.17,171,25.08,163,33,157.18c1.13-.83,3.6-.08,2.92,1.34-2.54,5.31-6.7,9.85-10.26,14.69,9.91-2.49,17.71-9.08,25-15,1.32-1.07,3.28.47,2.08,1.64-4.88,4.79-9.11,9.49-11,15.48,13-3.31,22.09-12.88,33.45-18.7.7-.36,1.72.34,1.21.95" transform="translate(63.38 -4.57)"/>
  <path id="path144-2" data-name="path144" d="M232.37,177.13c-7,3.75-13.16,9.34-21.16,11.55,1.07-4.89,4.26-9.15,7-13.56.71-1.16-.91-2.74-2.36-1.87-5.68,3.41-11,7.21-16.55,10.74a115.12,115.12,0,0,1,5.09-11c.62-1.25-1.55-2.37-2.78-1.68-8.22,4.63-15.67,10.09-23.58,15a34.42,34.42,0,0,1,8.41-11.84c1.61-1.44-.89-3.27-2.6-2.05-8.13,5.86-15.52,12.54-24.43,17.58,1-4,3.11-7.71,4.82-11.62.7-1.59-2.09-2.65-3.39-1.56-6.42,5.42-13.73,14.22-23.2,16.26a57,57,0,0,1,5.6-13.46c.89-1.56-1.46-3.11-3-1.83-7.44,6.11-15.32,12.83-25.35,15.84,1.81-5.38,5.09-10.17,8.81-14.89,1.31-1.65-1.54-2.92-3.1-1.89-8.4,5.54-16.1,12.49-25.88,16.35,3-6.29,8.21-11.46,14.36-16.07,1.68-1.27-.84-3.06-2.48-2-9.83,6.62-19.47,15-32.14,17.5a132.92,132.92,0,0,1,10.31-12.52c.72-.81-.82-1.53-1.61-1-2.39,1.68-5.09,2.94-7.48,4.61-.83.57.38,1.43,1.17.92s1.35-.82,2-1.21a72,72,0,0,0-8.15,10.12c-.6.94.43,1.68,1.52,1.56,8.33-.89,15.52-4.34,22.23-8.45a34.07,34.07,0,0,0-4.85,8.82c-.41,1.12,1,2.27,2.38,1.89,8.71-2.46,15.72-7.27,22.59-12.21a35.44,35.44,0,0,0-4.32,10.32c-.28,1.2.94,2.23,2.43,1.91,9.2-1.91,16.71-6.76,23.54-12.1a54.82,54.82,0,0,0-3.15,9.28,1.74,1.74,0,0,0,1.95,2c9-.6,15.77-5.94,21.86-11.44a27.45,27.45,0,0,0-2.08,8c-.1,1.24,1.83,1.94,3,1.36a104.45,104.45,0,0,0,17.74-11.64,53.24,53.24,0,0,0-3.24,7.16c-.49,1.31,1.53,2.54,2.91,1.77,8.1-4.54,15.32-10,23-14.9a54.9,54.9,0,0,0-4.15,10.43c-.33,1.26,1.42,2.57,2.87,1.74,5.08-2.91,9.71-6.29,14.44-9.57-2.07,3.44-3.77,7-4.17,10.94-.1,1,1.27,1.54,2.29,1.38,8.21-1.34,13.66-6.58,20-10.68a51.55,51.55,0,0,0-5.89,14.33c-.43,1.86,3.15,2.56,3.5.76,1.25-6.27,3.9-12.08,7-17.87.49-.91-.63-2.06-1.82-1.43Zm-165.16,4c-4.81,5.79-10.13,11.4-13,18,1.1-.26,2.16-.57,3.31-.95a.6.6,0,0,1,.56,1.06,12.48,12.48,0,0,1-5.47,2.29c-.89.14-1.9-.43-1.6-1.26,2.35-6.39,6.94-11.6,11.76-16.78C52.23,189.69,44,199.41,30.92,201.73c-1.17.2-2.11-.53-1.9-1.5A24.83,24.83,0,0,1,32.61,192c-5.59,3.9-11.79,7.1-19.07,8.05-1.41.19-2.7-.82-1.94-2,2.17-3.35,4.87-6.46,7.31-9.69-7,5.42-14.37,10.45-24.33,10.93a1.59,1.59,0,0,1-1.79-1.85,27,27,0,0,1,3.65-7.57c-5.6,4.29-11.26,8.48-18.85,10.1-1.07.23-2.47-.59-2-1.58a44.18,44.18,0,0,1,2.32-4.35c-3.46,2.8-7,5.52-10.75,8.1-.91.63-2.37.07-2.1-1a31.81,31.81,0,0,1,4.65-9.89c1.21-1.74,2.45-3.46,3.79-5.14-7,5.69-13.72,11.51-22,16-.88.48-1.8-.39-1.38-1.09,2.29-3.87,5-7.56,7.6-11.28A83.52,83.52,0,0,1-50.34,196c-3.35,2.26-7.21,5.29-11.71,5.69a1.08,1.08,0,1,1-.36-2.13c4.82-.71,9.33-4.91,12.89-7.46,4.09-2.92,8-6,11.9-9.1.67-.53,1.92.14,1.37.83a117,117,0,0,0-10.23,15.08c8.07-5.24,15.33-11.22,23.17-16.69.51-.36,1.47.09,1,.63-3.95,4.81-7.49,10-9.35,15.66A222.71,222.71,0,0,0-13,182.6c1-1,3.39.32,2.36,1.44A60.56,60.56,0,0,0-20,196.56c9.58-3.36,16.21-11.2,24.58-16.15,1.35-.8,3.56.77,2.46,1.94C3,186.61-.89,191-2.92,196.13c10.9-1.62,18.81-9.64,26.75-15.47,1.13-.82,3.6-.08,2.92,1.34-2.54,5.31-6.71,9.85-10.26,14.7,9.91-2.5,17.7-9.09,25-15,1.31-1.07,3.28.46,2.08,1.64-4.88,4.78-9.11,9.48-11,15.48,13-3.32,22.09-12.89,33.45-18.71.7-.36,1.71.35,1.21,1" transform="translate(63.38 -4.57)"/>
  <path id="path144-3" data-name="path144" d="M241.57,133.55c-7,3.75-13.17,9.34-21.17,11.55,1.07-4.89,4.26-9.15,7-13.56.72-1.16-.91-2.74-2.36-1.87-5.68,3.41-11,7.21-16.55,10.74a115.12,115.12,0,0,1,5.09-11c.63-1.25-1.55-2.37-2.78-1.68-8.22,4.63-15.66,10.09-23.57,15A34.06,34.06,0,0,1,195.63,131c1.61-1.44-.9-3.27-2.6-2.05-8.14,5.85-15.53,12.53-24.44,17.58,1-4,3.11-7.71,4.83-11.62.69-1.6-2.1-2.66-3.4-1.56-6.41,5.42-13.72,14.21-23.19,16.26a56.83,56.83,0,0,1,5.59-13.47c.89-1.55-1.45-3.1-3-1.83-7.45,6.12-15.33,12.84-25.35,15.85,1.8-5.38,5.08-10.17,8.81-14.89,1.3-1.65-1.55-2.92-3.11-1.89-8.39,5.54-16.09,12.48-25.88,16.35,3-6.29,8.22-11.46,14.36-16.08,1.69-1.26-.83-3.05-2.47-1.94-9.84,6.62-19.48,15-32.14,17.5a131.27,131.27,0,0,1,10.3-12.52c.72-.81-.82-1.53-1.6-1-2.4,1.68-5.1,2.94-7.49,4.62-.83.57.39,1.43,1.17.92s1.35-.82,2-1.21a72.6,72.6,0,0,0-8.14,10.12c-.61.94.42,1.68,1.52,1.56,8.32-.89,15.51-4.34,22.22-8.45a34.67,34.67,0,0,0-4.85,8.82c-.41,1.12,1,2.26,2.39,1.88,8.7-2.45,15.72-7.27,22.59-12.21a35.31,35.31,0,0,0-4.33,10.32c-.27,1.21,1,2.23,2.44,1.92,9.2-1.91,16.7-6.76,23.53-12.1a53.82,53.82,0,0,0-3.14,9.27,1.74,1.74,0,0,0,2,2c9-.6,15.77-5.94,21.85-11.44a27.75,27.75,0,0,0-2.07,8.05c-.1,1.24,1.82,1.94,3,1.35a102.49,102.49,0,0,0,17.74-11.64,55.25,55.25,0,0,0-3.24,7.17c-.49,1.31,1.53,2.54,2.92,1.77,8.09-4.54,15.32-10,23-14.9A54.9,54.9,0,0,0,203.33,144c-.33,1.26,1.42,2.57,2.87,1.74,5.08-2.91,9.71-6.29,14.44-9.58-2.07,3.45-3.77,7-4.17,10.95-.1,1,1.27,1.54,2.29,1.38,8.21-1.34,13.66-6.58,20-10.68a51.55,51.55,0,0,0-5.89,14.33c-.43,1.85,3.15,2.56,3.51.76,1.24-6.27,3.89-12.08,7-17.87.49-.91-.63-2.06-1.81-1.43Zm-165.17,4c-4.8,5.79-10.12,11.4-13,18.05,1.1-.26,2.15-.57,3.3-.95a.6.6,0,0,1,.57,1.06A12.76,12.76,0,0,1,61.82,158c-.89.14-1.9-.43-1.59-1.26,2.34-6.39,6.93-11.6,11.75-16.79-10.56,6.2-18.82,15.91-31.87,18.23-1.16.21-2.1-.53-1.89-1.49a24.63,24.63,0,0,1,3.59-8.22c-5.59,3.9-11.8,7.1-19.07,8-1.42.19-2.71-.82-1.95-2,2.18-3.35,4.88-6.46,7.31-9.69-7,5.42-14.37,10.45-24.33,10.93A1.59,1.59,0,0,1,2,153.88a27.13,27.13,0,0,1,3.65-7.57c-5.6,4.29-11.25,8.48-18.85,10.1-1.06.23-2.46-.59-2-1.58a43.08,43.08,0,0,1,2.32-4.35c-3.46,2.8-7,5.51-10.74,8.09-.92.64-2.38.07-2.1-1a31.71,31.71,0,0,1,4.64-9.9c1.21-1.74,2.45-3.46,3.8-5.13-7,5.69-13.73,11.51-22,16-.87.48-1.79-.39-1.38-1.09,2.29-3.87,5-7.56,7.6-11.28a80.7,80.7,0,0,1-8.09,6.17c-3.35,2.27-7.2,5.3-11.7,5.69a1.08,1.08,0,1,1-.37-2.12c4.82-.71,9.33-4.92,12.89-7.46,4.1-2.93,8-6,11.9-9.1.67-.53,1.92.14,1.38.83a115,115,0,0,0-10.23,15.08C-29.22,150-22,144.06-14.12,138.59c.51-.36,1.48.09,1,.63-3.95,4.81-7.48,10-9.35,15.65A219.16,219.16,0,0,0-3.83,139c1.05-1,3.4.32,2.36,1.43A61.19,61.19,0,0,0-10.82,153c9.57-3.36,16.21-11.2,24.57-16.15,1.36-.8,3.56.77,2.46,1.94-4,4.26-7.91,8.64-9.94,13.78,10.9-1.62,18.81-9.64,26.75-15.47,1.13-.82,3.6-.08,2.92,1.34-2.54,5.31-6.7,9.85-10.26,14.69,9.91-2.49,17.71-9.08,25-15,1.32-1.07,3.28.46,2.08,1.64-4.88,4.78-9.11,9.48-11,15.48,13-3.32,22.09-12.89,33.45-18.71.7-.36,1.72.35,1.21,1" transform="translate(63.38 -4.57)"/>
  <path id="path144-4" data-name="path144" d="M238.76,108.64c-7,3.75-13.16,9.34-21.16,11.55,1.07-4.89,4.26-9.15,7-13.56.71-1.16-.91-2.73-2.36-1.87-5.69,3.41-11,7.21-16.55,10.74a118.74,118.74,0,0,1,5.08-11c.63-1.25-1.54-2.37-2.77-1.68-8.22,4.63-15.67,10.09-23.58,15.05a34.29,34.29,0,0,1,8.41-11.84c1.61-1.44-.89-3.27-2.6-2-8.13,5.86-15.52,12.54-24.43,17.58,1-4,3.11-7.71,4.82-11.62.7-1.59-2.09-2.65-3.39-1.56-6.42,5.43-13.73,14.22-23.2,16.26a57,57,0,0,1,5.6-13.46c.89-1.56-1.46-3.11-3-1.83-7.44,6.11-15.32,12.83-25.35,15.84,1.81-5.38,5.09-10.17,8.81-14.89,1.31-1.65-1.54-2.92-3.1-1.89-8.4,5.54-16.1,12.49-25.88,16.35,3-6.29,8.21-11.45,14.36-16.07,1.68-1.27-.84-3.06-2.48-2-9.83,6.62-19.47,15-32.14,17.5a132.92,132.92,0,0,1,10.31-12.52c.72-.81-.82-1.53-1.61-1-2.39,1.68-5.09,2.94-7.48,4.61-.83.57.38,1.43,1.17.92s1.34-.82,2-1.21a72,72,0,0,0-8.15,10.12c-.61.94.42,1.68,1.52,1.56,8.33-.89,15.51-4.33,22.22-8.45A34.67,34.67,0,0,0,96,127.15c-.41,1.12,1,2.27,2.39,1.89,8.71-2.45,15.72-7.27,22.59-12.21a35.44,35.44,0,0,0-4.32,10.32c-.28,1.2.94,2.23,2.43,1.91,9.2-1.91,16.71-6.76,23.54-12.1a54.82,54.82,0,0,0-3.15,9.28,1.73,1.73,0,0,0,2,2c9-.6,15.77-5.94,21.86-11.44a27.45,27.45,0,0,0-2.08,8c-.1,1.24,1.83,1.94,3,1.36A104.45,104.45,0,0,0,182,114.58a53.24,53.24,0,0,0-3.24,7.16c-.5,1.31,1.53,2.54,2.91,1.77,8.09-4.54,15.32-10,23.05-14.9A54.9,54.9,0,0,0,200.53,119c-.33,1.26,1.42,2.57,2.86,1.74,5.09-2.91,9.72-6.29,14.44-9.57-2.06,3.44-3.76,7-4.16,11-.1,1,1.27,1.54,2.29,1.37,8.21-1.34,13.66-6.57,20-10.68a51.67,51.67,0,0,0-5.89,14.33c-.43,1.86,3.15,2.56,3.5.76,1.25-6.27,3.9-12.08,7-17.87.49-.91-.63-2.06-1.82-1.43Zm-165.16,4c-4.81,5.79-10.13,11.4-13,18.05,1.1-.25,2.16-.57,3.31-.94a.6.6,0,0,1,.56,1A12.48,12.48,0,0,1,59,133.05c-.89.14-1.9-.43-1.6-1.26,2.35-6.39,6.94-11.6,11.75-16.78-10.55,6.19-18.81,15.91-31.86,18.23-1.17.2-2.11-.53-1.9-1.5A24.83,24.83,0,0,1,39,123.52c-5.59,3.9-11.79,7.1-19.07,8-1.41.19-2.7-.82-1.94-2,2.17-3.35,4.87-6.46,7.31-9.69-7,5.42-14.37,10.45-24.34,10.93A1.59,1.59,0,0,1-.82,129a27,27,0,0,1,3.65-7.57c-5.6,4.29-11.26,8.49-18.85,10.11-1.07.22-2.47-.6-2-1.59a42.15,42.15,0,0,1,2.32-4.35c-3.46,2.8-7,5.52-10.75,8.1-.92.63-2.38.07-2.1-1a31.81,31.81,0,0,1,4.65-9.89c1.21-1.74,2.45-3.46,3.79-5.14-7,5.69-13.72,11.52-22,16-.88.48-1.8-.39-1.39-1.09,2.29-3.87,5-7.56,7.61-11.27a85.05,85.05,0,0,1-8.09,6.17c-3.35,2.26-7.21,5.29-11.71,5.69A1.08,1.08,0,1,1-56,131c4.82-.71,9.32-4.91,12.88-7.46,4.1-2.92,8-6,11.91-9.1.67-.53,1.92.14,1.37.84a116.24,116.24,0,0,0-10.23,15.07c8.07-5.24,15.33-11.22,23.17-16.69.51-.36,1.47.09,1,.63-3.95,4.81-7.49,10-9.35,15.66A222.71,222.71,0,0,0-6.63,114.11c1-1,3.39.33,2.36,1.44a60.56,60.56,0,0,0-9.36,12.52c9.57-3.36,16.21-11.2,24.58-16.15,1.35-.8,3.56.78,2.46,1.94-4,4.26-7.91,8.64-9.94,13.78C14.37,126,22.28,118,30.22,112.17c1.13-.82,3.6-.08,2.92,1.34-2.55,5.31-6.71,9.85-10.26,14.7,9.91-2.49,17.7-9.09,25-15,1.32-1.07,3.29.46,2.08,1.64-4.87,4.78-9.1,9.48-11,15.48,13-3.32,22.09-12.89,33.44-18.71.71-.36,1.72.35,1.22,1" transform="translate(63.38 -4.57)"/>
  <path id="path144-5" data-name="path144" d="M238.76,83.25c-7,3.75-13.16,9.34-21.16,11.55,1.07-4.89,4.26-9.15,7-13.56.71-1.16-.91-2.73-2.36-1.86-5.69,3.4-11,7.2-16.55,10.73a117.37,117.37,0,0,1,5.08-11c.63-1.26-1.54-2.38-2.77-1.69-8.22,4.63-15.67,10.09-23.58,15.05a34.29,34.29,0,0,1,8.41-11.84c1.61-1.44-.89-3.27-2.6-2-8.13,5.85-15.52,12.53-24.43,17.58,1-4,3.11-7.72,4.82-11.63.7-1.59-2.09-2.65-3.39-1.56-6.42,5.43-13.73,14.22-23.2,16.26a57,57,0,0,1,5.6-13.46c.89-1.56-1.46-3.11-3-1.83-7.44,6.11-15.32,12.83-25.35,15.84,1.81-5.38,5.09-10.17,8.81-14.89,1.31-1.65-1.54-2.92-3.1-1.89-8.4,5.54-16.1,12.49-25.88,16.35,3-6.29,8.21-11.45,14.36-16.07,1.68-1.27-.84-3-2.48-2-9.83,6.62-19.47,15-32.14,17.5A134.21,134.21,0,0,1,91.14,86.36c.72-.81-.82-1.53-1.61-1-2.39,1.68-5.09,2.94-7.48,4.61-.83.57.38,1.43,1.17.92s1.34-.82,2-1.21a72,72,0,0,0-8.15,10.12c-.61.94.42,1.68,1.52,1.56,8.33-.89,15.51-4.33,22.22-8.45A34.84,34.84,0,0,0,96,101.76c-.41,1.13,1,2.27,2.39,1.89,8.71-2.45,15.72-7.27,22.59-12.21a35.56,35.56,0,0,0-4.32,10.32c-.28,1.2.94,2.23,2.43,1.91,9.2-1.91,16.71-6.76,23.54-12.1a54.82,54.82,0,0,0-3.15,9.28,1.74,1.74,0,0,0,2,2c9-.61,15.77-6,21.86-11.45a27.45,27.45,0,0,0-2.08,8c-.1,1.24,1.83,1.94,3,1.36A103.85,103.85,0,0,0,182,89.19a53.81,53.81,0,0,0-3.24,7.16c-.5,1.32,1.53,2.54,2.91,1.77,8.09-4.54,15.32-10,23.05-14.9a54.9,54.9,0,0,0-4.15,10.43c-.33,1.26,1.42,2.58,2.86,1.74,5.09-2.91,9.72-6.29,14.44-9.57-2.06,3.44-3.76,7-4.16,11-.1,1,1.27,1.54,2.29,1.37,8.21-1.34,13.66-6.57,20-10.68a51.8,51.8,0,0,0-5.89,14.33c-.43,1.86,3.15,2.56,3.5.76,1.25-6.27,3.9-12.08,7-17.87.49-.91-.63-2.06-1.82-1.43Zm-165.16,4c-4.81,5.79-10.13,11.4-13,18.05,1.1-.25,2.16-.57,3.31-.94a.6.6,0,0,1,.56,1.05A12.48,12.48,0,0,1,59,107.66c-.89.14-1.9-.43-1.6-1.26,2.35-6.39,6.94-11.6,11.75-16.78-10.55,6.19-18.81,15.91-31.86,18.23-1.17.2-2.11-.53-1.9-1.5A24.83,24.83,0,0,1,39,98.13c-5.59,3.9-11.79,7.1-19.07,8.05-1.41.19-2.7-.82-1.94-2,2.17-3.35,4.87-6.46,7.31-9.68C18.34,99.93,10.93,105,1,105.43a1.58,1.58,0,0,1-1.78-1.84A26.91,26.91,0,0,1,2.83,96C-2.77,100.3-8.43,104.5-16,106.12c-1.07.22-2.47-.6-2-1.59a42.15,42.15,0,0,1,2.32-4.35c-3.46,2.81-7,5.52-10.75,8.1-.92.63-2.38.07-2.1-1a31.81,31.81,0,0,1,4.65-9.89c1.21-1.74,2.45-3.46,3.79-5.13-7,5.68-13.72,11.51-22,16-.88.47-1.8-.4-1.39-1.1,2.29-3.87,5-7.56,7.61-11.27a85.05,85.05,0,0,1-8.09,6.17c-3.35,2.26-7.21,5.3-11.71,5.69a1.08,1.08,0,1,1-.36-2.13c4.82-.71,9.32-4.91,12.88-7.46,4.1-2.92,8-6,11.91-9.1.67-.53,1.92.14,1.37.84A116.93,116.93,0,0,0-40.09,105C-32,99.74-24.76,93.77-16.92,88.29c.51-.36,1.47.1,1,.63-3.95,4.81-7.49,10-9.35,15.66A220.84,220.84,0,0,0-6.63,88.72c1-1,3.39.33,2.36,1.44a60.56,60.56,0,0,0-9.36,12.52C-4.06,99.32,2.58,91.48,11,86.53c1.35-.8,3.56.78,2.46,1.94-4,4.26-7.91,8.64-9.94,13.78,10.9-1.61,18.81-9.64,26.75-15.47,1.13-.82,3.6-.08,2.92,1.34-2.55,5.31-6.71,9.85-10.26,14.7,9.91-2.49,17.7-9.09,25-15,1.32-1.07,3.29.46,2.08,1.64C45,94.26,40.81,99,38.94,105c13-3.32,22.09-12.89,33.44-18.71.71-.36,1.72.35,1.22,1" transform="translate(63.38 -4.57)"/>
  <path id="path144-6" data-name="path144" d="M238.76,56.68c-7,3.75-13.16,9.35-21.16,11.55,1.07-4.88,4.26-9.15,7-13.56.71-1.15-.91-2.73-2.36-1.86-5.69,3.4-11,7.21-16.55,10.74a116.36,116.36,0,0,1,5.08-11c.63-1.26-1.54-2.38-2.77-1.68C199.77,55.53,192.32,61,184.41,66a34.1,34.1,0,0,1,8.41-11.84c1.61-1.44-.89-3.28-2.6-2-8.13,5.85-15.52,12.53-24.43,17.58,1-4,3.11-7.72,4.82-11.63.7-1.59-2.09-2.65-3.39-1.55-6.42,5.42-13.73,14.21-23.2,16.25a57,57,0,0,1,5.6-13.46c.89-1.55-1.46-3.11-3-1.83-7.44,6.12-15.32,12.83-25.35,15.84,1.81-5.38,5.09-10.17,8.81-14.89,1.31-1.65-1.54-2.92-3.1-1.89C118.57,62,110.87,69,101.09,72.83c3-6.29,8.21-11.45,14.36-16.07,1.68-1.27-.84-3-2.48-1.95-9.83,6.62-19.47,15-32.14,17.5A132.81,132.81,0,0,1,91.14,59.8c.72-.81-.82-1.53-1.61-1-2.39,1.68-5.09,2.94-7.48,4.61-.83.58.38,1.43,1.17.93s1.34-.83,2-1.21a70.83,70.83,0,0,0-8.15,10.12c-.61.93.42,1.67,1.52,1.56,8.33-.9,15.51-4.34,22.22-8.46A34.73,34.73,0,0,0,96,75.2c-.41,1.12,1,2.26,2.39,1.88,8.71-2.45,15.72-7.27,22.59-12.21a35.56,35.56,0,0,0-4.32,10.32c-.28,1.2.94,2.23,2.43,1.92,9.2-1.92,16.71-6.77,23.54-12.1a54.72,54.72,0,0,0-3.15,9.27,1.74,1.74,0,0,0,2,2c9-.61,15.77-6,21.86-11.45a27.45,27.45,0,0,0-2.08,8.05c-.1,1.24,1.83,1.94,3,1.36A103.26,103.26,0,0,0,182,62.62a54.39,54.39,0,0,0-3.24,7.16c-.5,1.32,1.53,2.55,2.91,1.77,8.09-4.53,15.32-10,23.05-14.89a54.64,54.64,0,0,0-4.15,10.43c-.33,1.25,1.42,2.57,2.86,1.74,5.09-2.91,9.72-6.3,14.44-9.58-2.06,3.44-3.76,7-4.16,11-.1,1,1.27,1.54,2.29,1.37,8.21-1.33,13.66-6.57,20-10.68a51.8,51.8,0,0,0-5.89,14.33c-.43,1.86,3.15,2.56,3.5.77,1.25-6.28,3.9-12.08,7-17.87.49-.92-.63-2.07-1.82-1.44Zm-165.16,4c-4.81,5.79-10.13,11.4-13,18.06,1.1-.26,2.16-.58,3.31-1a.6.6,0,0,1,.56,1.06A12.72,12.72,0,0,1,59,81.1c-.89.13-1.9-.43-1.6-1.27,2.35-6.39,6.94-11.59,11.75-16.78C58.62,69.24,50.36,79,37.31,81.28c-1.17.21-2.11-.53-1.9-1.49A24.88,24.88,0,0,1,39,71.56c-5.59,3.91-11.79,7.1-19.07,8.06-1.41.18-2.7-.83-1.94-2,2.17-3.34,4.87-6.46,7.31-9.68C18.34,73.36,10.93,78.38,1,78.87A1.59,1.59,0,0,1-.82,77a27,27,0,0,1,3.65-7.58C-2.77,73.74-8.43,77.93-16,79.55c-1.07.22-2.47-.59-2-1.59a42.15,42.15,0,0,1,2.32-4.35c-3.46,2.81-7,5.52-10.75,8.1-.92.63-2.38.07-2.1-1a32,32,0,0,1,4.65-9.9c1.21-1.74,2.45-3.46,3.79-5.13-7,5.68-13.72,11.51-22,16-.88.47-1.8-.4-1.39-1.09,2.29-3.88,5-7.56,7.61-11.28a85.05,85.05,0,0,1-8.09,6.17c-3.35,2.26-7.21,5.3-11.71,5.69A1.08,1.08,0,1,1-56,79.06c4.82-.7,9.32-4.91,12.88-7.45,4.1-2.93,8-6,11.91-9.11.67-.53,1.92.14,1.37.84A117,117,0,0,0-40.09,78.42C-32,73.18-24.76,67.2-16.92,61.72c.51-.35,1.47.1,1,.63-3.95,4.81-7.49,10-9.35,15.66A222.61,222.61,0,0,0-6.63,62.16c1-1,3.39.32,2.36,1.43a60.82,60.82,0,0,0-9.36,12.52C-4.06,72.76,2.58,64.91,11,60c1.35-.81,3.56.77,2.46,1.94-4,4.25-7.91,8.64-9.94,13.77,10.9-1.61,18.81-9.63,26.75-15.46,1.13-.83,3.6-.09,2.92,1.34-2.55,5.3-6.71,9.84-10.26,14.69,9.91-2.49,17.7-9.09,25-15,1.32-1.07,3.29.46,2.08,1.64-4.87,4.79-9.1,9.49-11,15.48,13-3.32,22.09-12.89,33.44-18.7.71-.36,1.72.34,1.22,1" transform="translate(63.38 -4.57)"/>
  <path id="path144-7" data-name="path144" d="M242.7,33c-7,3.75-13.17,9.35-21.16,11.55,1.06-4.88,4.26-9.14,7-13.56.71-1.15-.91-2.73-2.36-1.86-5.69,3.4-11,7.21-16.56,10.74a119,119,0,0,1,5.09-11c.63-1.25-1.54-2.38-2.77-1.68-8.22,4.63-15.67,10.08-23.58,15a34.1,34.1,0,0,1,8.41-11.84c1.61-1.44-.89-3.28-2.6-2.05-8.13,5.85-15.53,12.53-24.43,17.58,1-4,3.11-7.72,4.82-11.63.7-1.59-2.1-2.65-3.39-1.55C164.74,38.15,157.43,46.94,148,49a57,57,0,0,1,5.6-13.46c.88-1.55-1.46-3.11-3-1.83-7.45,6.12-15.33,12.83-25.35,15.85,1.81-5.39,5.09-10.18,8.81-14.9,1.3-1.65-1.54-2.92-3.1-1.88-8.4,5.54-16.1,12.48-25.89,16.35,3-6.3,8.22-11.46,14.36-16.08,1.69-1.27-.83-3.05-2.47-2-9.83,6.62-19.48,15-32.14,17.5A132.81,132.81,0,0,1,95.08,36.07c.72-.81-.82-1.53-1.61-1C91.08,36.77,88.38,38,86,39.7c-.82.58.39,1.44,1.18.93s1.34-.83,2-1.21a72,72,0,0,0-8.14,10.12c-.61.93.42,1.67,1.52,1.56,8.32-.89,15.51-4.34,22.22-8.46a34.73,34.73,0,0,0-4.85,8.83c-.41,1.12,1,2.26,2.39,1.88,8.7-2.45,15.72-7.27,22.59-12.21a35.56,35.56,0,0,0-4.32,10.32c-.28,1.2.94,2.23,2.43,1.92,9.2-1.92,16.7-6.77,23.54-12.1a53.85,53.85,0,0,0-3.15,9.27,1.74,1.74,0,0,0,2,2c9-.61,15.77-6,21.86-11.45a27.53,27.53,0,0,0-2.08,8.05c-.1,1.24,1.82,1.94,3,1.36A103.26,103.26,0,0,0,185.9,38.89a55.78,55.78,0,0,0-3.25,7.16c-.49,1.32,1.54,2.55,2.92,1.77,8.09-4.53,15.32-10,23.05-14.89a54.68,54.68,0,0,0-4.16,10.43c-.32,1.25,1.42,2.57,2.87,1.74,5.09-2.91,9.71-6.3,14.44-9.58-2.07,3.44-3.76,7-4.16,10.95-.1,1,1.27,1.54,2.28,1.37,8.21-1.33,13.67-6.57,20-10.68A52.13,52.13,0,0,0,234,51.49c-.42,1.86,3.15,2.57,3.51.77,1.25-6.28,3.9-12.08,7-17.87.49-.92-.64-2.07-1.82-1.44Zm-165.17,4c-4.8,5.8-10.12,11.4-13,18.06,1.1-.26,2.16-.57,3.31-.95a.6.6,0,0,1,.56,1.06A12.72,12.72,0,0,1,63,57.37c-.89.13-1.9-.43-1.6-1.26,2.35-6.4,6.93-11.6,11.75-16.79C62.56,45.51,54.3,55.23,41.25,57.55c-1.17.21-2.11-.53-1.9-1.49a24.88,24.88,0,0,1,3.59-8.23c-5.59,3.91-11.79,7.1-19.07,8.06-1.41.18-2.71-.83-1.94-2,2.17-3.34,4.87-6.45,7.31-9.68-7,5.42-14.37,10.44-24.34,10.93a1.59,1.59,0,0,1-1.78-1.85,27,27,0,0,1,3.65-7.58C1.17,50-4.49,54.2-12.09,55.82c-1.06.23-2.46-.59-2-1.58a42.23,42.23,0,0,1,2.31-4.36Q-17,54.1-22.52,58c-.92.63-2.38.07-2.1-1A32,32,0,0,1-20,47.12c1.21-1.74,2.45-3.46,3.79-5.13-7,5.68-13.73,11.51-22,16-.88.47-1.8-.4-1.39-1.09,2.29-3.87,5-7.56,7.61-11.28A85.05,85.05,0,0,1-40,51.77c-3.35,2.27-7.21,5.3-11.71,5.69a1.08,1.08,0,1,1-.37-2.12c4.83-.71,9.33-4.92,12.89-7.46,4.1-2.93,8-6,11.91-9.1.67-.54,1.92.13,1.37.83A115,115,0,0,0-36.15,54.69C-28.08,49.45-20.83,43.47-13,38c.51-.36,1.47.09,1,.62-4,4.81-7.49,10-9.35,15.66A222.33,222.33,0,0,0-2.69,38.43c1.05-1,3.39.32,2.36,1.43A60.82,60.82,0,0,0-9.69,52.38C-.12,49,6.52,41.18,14.89,36.24c1.35-.8,3.56.77,2.46,1.94-4,4.25-7.92,8.64-9.94,13.77,10.9-1.61,18.81-9.63,26.75-15.46,1.12-.83,3.6-.09,2.92,1.34-2.55,5.31-6.71,9.84-10.26,14.69,9.91-2.49,17.7-9.09,25-15,1.32-1.07,3.29.47,2.08,1.64C49,44,44.74,48.67,42.88,54.66,55.86,51.34,65,41.77,76.32,36c.7-.36,1.72.34,1.21.95" transform="translate(63.38 -4.57)"/>
  <path id="path144-8" data-name="path144" d="M244.72,10.57c-7,3.75-13.16,9.34-21.16,11.54,1.06-4.88,4.26-9.14,7-13.56.71-1.15-.91-2.73-2.36-1.86-5.69,3.4-11,7.21-16.55,10.74a116.36,116.36,0,0,1,5.08-11c.63-1.25-1.54-2.37-2.77-1.68-8.22,4.63-15.67,10.08-23.58,15A34.1,34.1,0,0,1,198.78,8c1.61-1.44-.89-3.28-2.6-2-8.13,5.85-15.52,12.53-24.43,17.58,1-4,3.11-7.72,4.82-11.63.7-1.59-2.09-2.65-3.39-1.55-6.42,5.42-13.73,14.21-23.2,16.25a57,57,0,0,1,5.6-13.46c.88-1.55-1.46-3.1-3-1.83-7.45,6.12-15.33,12.83-25.35,15.85C129,21.77,132.31,17,136,12.26c1.31-1.66-1.54-2.93-3.1-1.89-8.4,5.54-16.1,12.48-25.89,16.35,3.06-6.29,8.22-11.46,14.36-16.08,1.69-1.27-.83-3.05-2.47-2-9.83,6.63-19.47,15-32.14,17.5A132.81,132.81,0,0,1,97.1,13.68c.72-.81-.82-1.53-1.61-1C93.1,14.38,90.4,15.64,88,17.31c-.82.58.39,1.44,1.18.93s1.34-.83,2-1.21a72,72,0,0,0-8.15,10.12c-.61.93.42,1.68,1.52,1.56,8.33-.89,15.51-4.34,22.22-8.45A34.51,34.51,0,0,0,102,29.08c-.41,1.12,1.05,2.26,2.39,1.88,8.71-2.45,15.72-7.27,22.59-12.21a35.56,35.56,0,0,0-4.32,10.32c-.28,1.21.94,2.23,2.43,1.92,9.2-1.92,16.71-6.77,23.54-12.1a54.72,54.72,0,0,0-3.15,9.27,1.74,1.74,0,0,0,1.95,2c9-.6,15.77-5.95,21.86-11.45a27.53,27.53,0,0,0-2.08,8.05c-.1,1.25,1.83,1.94,3,1.36A103.26,103.26,0,0,0,187.92,16.5a53.94,53.94,0,0,0-3.24,7.17c-.5,1.31,1.53,2.54,2.91,1.76,8.09-4.53,15.32-10,23-14.89A54.94,54.94,0,0,0,206.48,21c-.32,1.26,1.42,2.57,2.87,1.74,5.09-2.91,9.71-6.3,14.44-9.58-2.07,3.45-3.76,7-4.16,10.95-.1,1,1.27,1.54,2.29,1.38,8.2-1.34,13.66-6.58,20-10.68A51.61,51.61,0,0,0,236,29.1c-.43,1.86,3.14,2.57,3.5.77,1.25-6.28,3.9-12.08,7-17.87.49-.91-.64-2.07-1.82-1.43ZM79.55,14.52c-4.8,5.8-10.12,11.4-13,18.06,1.1-.26,2.16-.57,3.31-.95a.6.6,0,0,1,.56,1.06A12.72,12.72,0,0,1,65,35c-.89.13-1.9-.43-1.6-1.26,2.35-6.4,6.93-11.6,11.75-16.79-10.55,6.2-18.81,15.91-31.86,18.23-1.17.21-2.11-.53-1.9-1.49A25,25,0,0,1,45,25.44c-5.59,3.91-11.79,7.11-19.07,8.06-1.41.18-2.71-.82-1.94-2,2.17-3.34,4.87-6.45,7.31-9.68-7,5.42-14.37,10.44-24.34,10.93A1.58,1.58,0,0,1,5.14,30.9a27,27,0,0,1,3.65-7.58c-5.6,4.3-11.26,8.49-18.86,10.11-1.06.23-2.46-.59-2-1.58a42.23,42.23,0,0,1,2.31-4.36q-5.18,4.22-10.74,8.1c-.92.64-2.38.07-2.1-1a32,32,0,0,1,4.65-9.9c1.21-1.74,2.45-3.46,3.79-5.13-7,5.69-13.73,11.51-22,16-.88.48-1.8-.4-1.39-1.09,2.29-3.87,5-7.56,7.61-11.28A83.42,83.42,0,0,1-38,29.38c-3.35,2.27-7.21,5.3-11.71,5.69A1.08,1.08,0,1,1-50.07,33c4.83-.71,9.33-4.92,12.89-7.46,4.1-2.93,8-6,11.91-9.1.67-.54,1.92.13,1.37.83A115,115,0,0,0-34.13,32.3C-26.06,27.06-18.81,21.08-11,15.61c.51-.36,1.47.09,1,.63-4,4.8-7.49,10-9.35,15.65A222.33,222.33,0,0,0-.67,16c1.05-1,3.39.32,2.36,1.43A60.82,60.82,0,0,0-7.67,30C1.9,26.64,8.54,18.8,16.91,13.85c1.35-.8,3.56.77,2.46,1.94-4,4.25-7.91,8.64-9.94,13.78C20.33,28,28.24,19.93,36.18,14.1c1.12-.83,3.6-.08,2.92,1.34-2.55,5.31-6.71,9.85-10.26,14.69,9.91-2.49,17.7-9.08,25-15,1.32-1.07,3.29.47,2.08,1.64-4.88,4.79-9.1,9.49-11,15.48C57.88,29,67,19.39,78.34,13.57c.7-.36,1.72.34,1.21.95" transform="translate(63.38 -4.57)"/>
</svg>
