<svg id="Слой_1" data-name="Слой 1" xmlns="http://www.w3.org/2000/svg" xmlns:xlink="http://www.w3.org/1999/xlink" viewBox="0 0 200 200">
  <defs>
    <clipPath id="clip-path">
      <path d="M146.33,166.89c-1.31-2.41-2.55-4.85-3.82-7.28l-3.7-7.32c-2.47-4.88-4.86-9.8-7.24-14.72q-7.11-14.76-13.86-29.68T104.46,78L98,62.9l-1.71-4.1-.61,1.43L90.33,72.59C86.7,80.81,83,89,79.21,97.15s-7.7,16.26-11.74,24.31c-2,4-4.06,8-6.17,12l-3.18,6c-1.1,2-2.16,4-3.29,5.93.6-2.18,1.27-4.34,1.9-6.51l2-6.46c1.34-4.31,2.77-8.58,4.2-12.85q4.32-12.79,9-25.44c3.1-8.44,6.34-16.83,9.63-25.19l5-12.51L91.72,44l4.63-11.25L101,44l6.19,15.15,6.06,15.2q6,15.24,11.75,30.56c3.81,10.23,7.55,20.5,11.14,30.82,1.78,5.16,3.57,10.33,5.26,15.53l2.55,7.8C144.71,161.66,145.56,164.26,146.33,166.89Z" fill="none" stroke="#000" stroke-miterlimit="10"/>
    </clipPath>
    <pattern id="logo_pat" data-name="logo_pat" width="200" height="200" patternTransform="translate(200 -200)" patternUnits="userSpaceOnUse" viewBox="0 0 200 200">
      <rect width="200" height="200" fill="none"/>
      <g>
        <g clip-path="url(#clip-path)">
          <path id="path144" d="M144.92,161.9c.16.13,0,.34-.17.32a14.08,14.08,0,0,0-3.43-.05.26.26,0,0,1,0-.51,11.25,11.25,0,0,1,2.78.07c-1-.66-2.24-1.14-2.92-2.25-.09-.14-.07-.38.11-.42a5.87,5.87,0,0,1,2.21,0c-.85-.52-1.72-1-2.55-1.65a.32.32,0,0,1,.15-.57,13.47,13.47,0,0,1,2.2,0c-1.37-1-2.85-1.8-4.24-2.89-.24-.19-.14-.64.14-.65a12.25,12.25,0,0,1,1.61.06,19.9,19.9,0,0,1-3.52-2.42c-.2-.18-.21-.62,0-.7a5.92,5.92,0,0,1,1.77-.25,7.89,7.89,0,0,1-4.08-3.58.42.42,0,0,1,.24-.62,11,11,0,0,1,2.22-.19,14,14,0,0,1-4.76-4.39c-.22-.35-.12-.78.17-.85a7.53,7.53,0,0,1,2.72-.06,19.48,19.48,0,0,1-5.16-4.75c-.24-.35-.16-.93.15-1a7,7,0,0,1,2.61.25,18.15,18.15,0,0,1-4.73-5.89c-.18-.36-.14-.84.17-.78a16,16,0,0,1,3.55,1.19l-.55-.51c-.23-.19-.17-.75.08-.55.72.56,1.36,1.29,2.06,1.84.23.18.22.8-.06.68a30.83,30.83,0,0,0-4.35-1.52c2.18,3.77,5.25,5.56,7.82,7.57.42.33.22,1.27-.23.95a10.08,10.08,0,0,0-5.24-2c1.95,2.29,4.3,3.55,6.33,5.12.37.28.32,1.15-.17,1a10.58,10.58,0,0,0-4.12-.58,17,17,0,0,0,5.67,4.43c.39.23.23.9-.17.85a12.48,12.48,0,0,0-3.29,0c1.2,1.85,3.55,2.59,5.12,3.43.32.17.28.81-.09.8a18.58,18.58,0,0,0-2.69,0,51.56,51.56,0,0,0,5.08,3.21c.34.21.12.78-.26.6a7,7,0,0,0-2.82-.64c1.45,1,2.93,1.92,4.25,3,.2.15.09.57-.18.55-.79-.06-1.56-.14-2.33-.13,1,.66,1.94,1.25,2.85,1.9.23.17,0,.5-.23.46a10,10,0,0,0-2.82-.26,16.51,16.51,0,0,0,3.11,2.37Zm-13.6-37.17c.22.09.27-.43.09-.63-3.14-3.44-7.09-5.35-10.29-10.46,1.94-.5,4,.43,6.12,1.62.52.29.63-1,.11-1.34-2.9-2.13-6.2-4.42-9-9.06,2.12.64,4.27,1.69,6.3,1.65.55,0,.3-1.58-.17-2-3.35-2.92-7.49-5.27-10.74-11.81,2-.4,4.37.74,6.65,2,.61.34.6-1.68,0-2.34-3.66-4.19-7.93-6.16-11.94-12.4a15.47,15.47,0,0,1,6.8,2.38c.65.37.42-2.11-.22-2.55a108.31,108.31,0,0,1-11.3-9.27c2.44-1,5.4-.25,8.34,1.11.33.16.16-1-.13-1.29-4.62-4.93-9.44-9.25-14.66-15.16a27.64,27.64,0,0,1,9.36,2.56c.46.2.19-1.64-.27-2.08-2.71-2.65-5.5-5.42-8.41-8.62-2.62-2.86-6.35-5.89-9.36-12.18-1-2.06-1.36.1-.41,2.19,2.7,5.94,5.7,8.87,8.12,11.6a62.6,62.6,0,0,0,5.78,5.83,40.3,40.3,0,0,0-7.1-1.9c-.42-.05-.22,1.58.35,2.31,5.12,6.54,9.72,10.39,14.16,14.38a22.62,22.62,0,0,0-3-1.08,5.86,5.86,0,0,0-4.86.52c-.41.26,0,1.93.55,2.49,2.19,2.19,4.31,4.13,6.36,5.89a8.4,8.4,0,0,0-2.12,0c-.45,0-.2,1.61.23,2.4A34.86,34.86,0,0,0,115.44,90a5.19,5.19,0,0,0-3.27.14c-.34.15-.38,1.1,0,1.91a28.28,28.28,0,0,0,9.09,11.81,42.61,42.61,0,0,0-4.36-1.43c-.51-.11-.48.93-.1,1.68a24.83,24.83,0,0,0,6.17,7.92,4.83,4.83,0,0,0-2.89.2c-.29.13-.29.75,0,1.26,3,5.35,6.87,6.87,10,9.94-2-.94-4.07-1.78-6-1.51-.26,0-.23.55-.05.87a5.24,5.24,0,0,0,1.43,1.69c.18.17.36-.14.17-.4s-.52-.73-.75-1.11c2.11-.11,4.32.93,6.48,1.72"/>
          <path id="path144-2" data-name="path144" d="M56,146.45c.05.2-.28.31-.45.2a15.47,15.47,0,0,0-3.55-2c-.4-.15,0-.68.41-.51a12.88,12.88,0,0,1,2.85,1.64c-.47-1.17-1.29-2.3-1-3.71a.4.4,0,0,1,.49-.3,6.43,6.43,0,0,1,2.23,1.3,28.14,28.14,0,0,1-1.13-3c-.09-.3.37-.53.64-.39a14,14,0,0,1,2.13,1.34c-.52-1.63-1.24-3.28-1.69-5.11-.08-.32.41-.63.7-.44a14.84,14.84,0,0,1,1.49,1.12,18.3,18.3,0,0,1-1.37-4.39.51.51,0,0,1,.63-.53,7.73,7.73,0,0,1,1.89,1.07c-.85-1.72-1.63-3.66-.91-5.81a.53.53,0,0,1,.75-.28,16.42,16.42,0,0,1,2.18,1.57,13.65,13.65,0,0,1-.81-7,.57.57,0,0,1,.83-.45,10.29,10.29,0,0,1,2.42,2.22,20.66,20.66,0,0,1-.79-7.64c.05-.45.58-.75.87-.49a10.53,10.53,0,0,1,2,2.5,18,18,0,0,1,.48-8c.12-.39.5-.63.7-.3a23.69,23.69,0,0,1,1.91,4c0-.27,0-.53-.07-.8s.4-.59.45-.25c.15,1,.13,2,.27,2.9,0,.31-.38.68-.51.36a44.2,44.2,0,0,0-2.28-4.84c-1,4.32.17,8.12.74,11.49.09.54-.72,1-.85.45a12.63,12.63,0,0,0-2.77-5.73c-.08,3.22.94,6,1.44,8.64.09.48-.58,1-.87.58a13.45,13.45,0,0,0-3.1-3.68c-.26,2.85.71,5.35,1.52,7.57a.5.5,0,0,1-.79.51,15.45,15.45,0,0,0-3-2.42c-.38,2.32,1.19,4.59,1.93,6.31.14.34-.39.81-.71.56A20.8,20.8,0,0,0,58.83,133,44.88,44.88,0,0,0,61,138.88c.14.38-.51.71-.71.33a7,7,0,0,0-2.13-2.3c.54,1.78,1.2,3.43,1.58,5.08.06.24-.38.53-.61.36-.69-.51-1.37-1-2.13-1.49.39,1.14.84,2.22,1.17,3.3.08.27-.39.43-.6.26a10.27,10.27,0,0,0-2.58-1.84c-.06,1.4.77,2.64,1.1,3.87Zm16.37-36.71c.11.25.48,0,.48-.27,0-4.81-1.53-9.84-.38-15.9,1.72,2,2.51,4.57,3.18,7.33.16.66,1,.15.9-.54-.56-4-1.31-8.63-.21-13.82,1,2.74,1.7,5.58,3,7.73.33.56,1.08-.37,1-1-.29-4.81-1.4-10.52.52-16.85C82.33,78.84,83,82,83.52,85c.15.8,1.21.06,1.25-.8.31-5.58-.89-11.43.37-18.4a45,45,0,0,1,2.2,9.31c.12.88,1.23-.11,1.15-1-.46-5.09-.68-10.74-.75-17A38.06,38.06,0,0,1,91,68.49c.07.43.52,0,.54-.47.32-6.9.27-14.24.82-22.73A112.69,112.69,0,0,1,95,58.81c.09.62.76,0,.78-.7.12-4,.27-8.13.55-12.63.26-4.12.17-10.1,1.79-15.12.52-1.63-.54-2.28-1.1-.67-1.61,4.6-1.75,9.56-2,13.5-.22,3.14-.34,6.2-.32,9-.61-3.48-1.2-7.18-2-10.77-.16-.67-.86-.23-1,.75A188.82,188.82,0,0,0,91,64.74c-.23-1.42-.52-2.81-.83-4.22a23.23,23.23,0,0,0-2.59-6.84c-.34-.59-1,.32-1,1.25,0,3.65,0,7.07.13,10.29a31.07,31.07,0,0,0-1.07-2.94c-.27-.63-1,.07-1.2.87a46.35,46.35,0,0,0-1.06,14.5,14.91,14.91,0,0,0-1.94-4.1c-.28-.4-.87-.17-1.14.56-2.14,5.76-1.92,10.81-1.49,15.36-.62-1.84-1.15-3.84-1.9-5.7-.27-.66-.92-.23-1.15.54a28,28,0,0,0-.91,10.59,10.65,10.65,0,0,0-2.18-3.18c-.31-.29-.74,0-.88.56-1.47,6,.36,10.9.59,15.63A19.61,19.61,0,0,0,68.87,101c-.23-.26-.59,0-.68.41a5.81,5.81,0,0,0-.08,2.45c0,.29.39.3.43,0,0-.49.11-.94.2-1.4,1.72,2.13,2.66,4.87,3.67,7.33"/>
        </g>
        <path d="M146.33,166.89c-1.31-2.41-2.55-4.85-3.82-7.28l-3.7-7.32c-2.47-4.88-4.86-9.8-7.24-14.72q-7.11-14.76-13.86-29.68T104.46,78L98,62.9l-1.71-4.1-.61,1.43L90.33,72.59C86.7,80.81,83,89,79.21,97.15s-7.7,16.26-11.74,24.31c-2,4-4.06,8-6.17,12l-3.18,6c-1.1,2-2.16,4-3.29,5.93.6-2.18,1.27-4.34,1.9-6.51l2-6.46c1.34-4.31,2.77-8.58,4.2-12.85q4.32-12.79,9-25.44c3.1-8.44,6.34-16.83,9.63-25.19l5-12.51L91.72,44l4.63-11.25L101,44l6.19,15.15,6.06,15.2q6,15.24,11.75,30.56c3.81,10.23,7.55,20.5,11.14,30.82,1.78,5.16,3.57,10.33,5.26,15.53l2.55,7.8C144.71,161.66,145.56,164.26,146.33,166.89Z" fill="none" stroke="#000" stroke-miterlimit="10"/>
      </g>
    </pattern>
  </defs>
  <title>logo_bg</title>
  <rect width="200" height="200" fill="url(#logo_pat)"/>
</svg>
