<svg id="Слой_1" data-name="Слой 1" xmlns="http://www.w3.org/2000/svg" viewBox="0 0 100.5 57">
  <title>menu</title>
  <path d="M25,50.5a233.24,233.24,0,0,1,25-2.74c8.33-.52,16.67-.75,25-.76s16.67.24,25,.75a230.74,230.74,0,0,1,25,2.75,230.74,230.74,0,0,1-25,2.75Q87.51,54,75,54c-8.33,0-16.67-.24-25-.76A233.24,233.24,0,0,1,25,50.5Z" transform="translate(-24.5 -47)"/>
  <path d="M24.5,75.5a233.24,233.24,0,0,1,25-2.74c8.33-.52,16.67-.75,25-.76s16.67.24,25,.75a230.74,230.74,0,0,1,25,2.75,230.74,230.74,0,0,1-25,2.75Q87,79,74.5,79c-8.33,0-16.67-.24-25-.76A233.24,233.24,0,0,1,24.5,75.5Z" transform="translate(-24.5 -47)"/>
  <path d="M25,100.5a233.24,233.24,0,0,1,25-2.74c8.33-.52,16.67-.75,25-.76s16.67.24,25,.75a230.74,230.74,0,0,1,25,2.75,230.74,230.74,0,0,1-25,2.75q-12.5.77-25,.75c-8.33,0-16.67-.24-25-.76A233.24,233.24,0,0,1,25,100.5Z" transform="translate(-24.5 -47)"/>
</svg>
