<svg id="Слой_1" data-name="Слой 1" xmlns="http://www.w3.org/2000/svg" xmlns:xlink="http://www.w3.org/1999/xlink" viewBox="0 0 150 150">
  <defs>
    <clipPath id="clip-path">
      <path d="M25,50a233.24,233.24,0,0,1,25-2.74c8.33-.52,16.67-.75,25-.76s16.67.24,25,.75A230.74,230.74,0,0,1,125,50a230.74,230.74,0,0,1-25,2.75q-12.5.77-25,.75c-8.33,0-16.67-.24-25-.76A233.24,233.24,0,0,1,25,50Z" fill="none" stroke="#000" stroke-miterlimit="10"/>
    </clipPath>
    <clipPath id="clip-path-2">
      <path d="M25,75a233.24,233.24,0,0,1,25-2.74c8.33-.52,16.67-.75,25-.76s16.67.24,25,.75A230.74,230.74,0,0,1,125,75a230.74,230.74,0,0,1-25,2.75q-12.5.77-25,.75c-8.33,0-16.67-.24-25-.76A233.24,233.24,0,0,1,25,75Z" fill="none" stroke="#000" stroke-miterlimit="10"/>
    </clipPath>
    <clipPath id="clip-path-3">
      <path d="M25,100a233.24,233.24,0,0,1,25-2.74c8.33-.52,16.67-.75,25-.76s16.67.24,25,.75A230.74,230.74,0,0,1,125,100a230.74,230.74,0,0,1-25,2.75q-12.5.77-25,.75c-8.33,0-16.67-.24-25-.76A233.24,233.24,0,0,1,25,100Z" fill="none" stroke="#000" stroke-miterlimit="10"/>
    </clipPath>
    <pattern id="menu_pat" data-name="menu_pat" x="-0.5" y="-0.5" width="150" height="150" patternUnits="userSpaceOnUse" viewBox="0 0 150 150">
      <rect width="150" height="150" fill="none"/>
      <g>
        <g>
          <g clip-path="url(#clip-path)">
            <path id="path144" d="M115.23,48.31c.5-.15.93.15.71.38a15.42,15.42,0,0,0-3.35,4.54c-.19.47-1.68.28-1.45-.2A12.82,12.82,0,0,1,114,49.37c-2.74,1-5.19,2.35-8.76,2.68-.45,0-1-.1-1-.37a6.4,6.4,0,0,1,2.11-2.85c-2.15.83-4.28,1.7-6.63,2.45-.67.22-1.42-.14-1.24-.48a13.8,13.8,0,0,1,2.15-2.75c-3.62,1.26-7.1,2.69-11,3.89-.69.21-1.62-.13-1.34-.49a15.09,15.09,0,0,1,1.74-2A69,69,0,0,1,81,52.65c-.61.16-1.55,0-1.46-.39A6,6,0,0,1,80.86,50a28.19,28.19,0,0,1-11.57,3.18c-.72,0-1.12-.3-1-.59a14.48,14.48,0,0,1,2-2.67,48.24,48.24,0,0,1-13.2,3.47c-.85.09-1.5-.22-1.31-.58a10.85,10.85,0,0,1,2.79-3.06,65.6,65.6,0,0,1-13.47,3.6c-.82.12-1.65-.24-1.36-.58a13.23,13.23,0,0,1,3.21-2.69A58.15,58.15,0,0,1,33,52.61c-.7,0-1.33-.21-.9-.5A41.87,41.87,0,0,1,37.62,49c-.44.11-.88.23-1.31.36s-1.23-.12-.69-.3c1.55-.5,3.26-.87,4.79-1.37.5-.17,1.41.07.94.32a74.72,74.72,0,0,0-6.83,3.84c7.89-.72,13.94-3.24,19.86-5.14,1-.32,2.33.24,1.34.61-3.67,1.33-6.86,2.86-8.88,4.76,5.85-1.13,10.46-3.16,15.31-4.73.89-.29,2.39.11,1.63.58a19.64,19.64,0,0,0-5.35,4.35,58.28,58.28,0,0,0,14.18-4.48c.84-.35,2,.11,1.5.55a16,16,0,0,0-3.34,3.83c5-.55,8.94-3,12.29-4.47.67-.29,2,0,1.61.46A21.85,21.85,0,0,0,82,51.36c4.5-1.37,8.23-3.15,12.21-4.67.82-.32,1.92.2,1.14.57a13,13,0,0,0-4.25,3.16c3.83-1.3,7.38-2.71,11.19-3.87.56-.17,1.49.14,1.18.47a30.27,30.27,0,0,0-2.55,2.86c2.56-.9,5-1.86,7.51-2.7.65-.21,1.3.21,1,.5-1.28,1.13-2.76,2.22-3.35,3.5,3.49-.54,6.23-2,9.23-2.87Z"/>
          </g>
          <path d="M25,50a233.24,233.24,0,0,1,25-2.74c8.33-.52,16.67-.75,25-.76s16.67.24,25,.75A230.74,230.74,0,0,1,125,50a230.74,230.74,0,0,1-25,2.75q-12.5.77-25,.75c-8.33,0-16.67-.24-25-.76A233.24,233.24,0,0,1,25,50Z" fill="none" stroke="#000" stroke-miterlimit="10"/>
        </g>
        <g>
          <g clip-path="url(#clip-path-2)">
            <path id="path144-2" data-name="path144" d="M115.73,73.31c.5-.15.93.15.71.38a15.42,15.42,0,0,0-3.35,4.54c-.19.47-1.68.28-1.45-.2a12.82,12.82,0,0,1,2.82-3.66c-2.74,1-5.19,2.35-8.76,2.68-.45,0-1-.1-1-.37a6.4,6.4,0,0,1,2.11-2.85c-2.15.83-4.28,1.7-6.63,2.45-.67.22-1.42-.14-1.24-.48a13.8,13.8,0,0,1,2.15-2.75c-3.62,1.26-7.1,2.69-11,3.89-.69.21-1.62-.13-1.34-.49a15.09,15.09,0,0,1,1.74-2,69,69,0,0,1-8.95,3.16c-.61.16-1.55,0-1.46-.39A6,6,0,0,1,81.36,75a28.19,28.19,0,0,1-11.57,3.18c-.72,0-1.12-.3-1-.59a14.48,14.48,0,0,1,2-2.67,48.24,48.24,0,0,1-13.2,3.47c-.85.09-1.5-.22-1.31-.58a10.85,10.85,0,0,1,2.79-3.06,65.6,65.6,0,0,1-13.47,3.6c-.82.12-1.65-.24-1.36-.58a13.23,13.23,0,0,1,3.21-2.69,58.15,58.15,0,0,1-13.9,2.53c-.7,0-1.33-.21-.9-.5A41.87,41.87,0,0,1,38.12,74c-.44.11-.88.23-1.31.36s-1.23-.12-.69-.3c1.55-.5,3.26-.87,4.79-1.37.5-.17,1.41.07.94.32A74.72,74.72,0,0,0,35,76.82c7.89-.72,13.94-3.24,19.86-5.14,1-.32,2.33.24,1.34.61-3.67,1.33-6.86,2.86-8.88,4.76,5.85-1.13,10.46-3.16,15.31-4.73.89-.29,2.39.11,1.63.58a19.64,19.64,0,0,0-5.35,4.35,58.28,58.28,0,0,0,14.18-4.48c.84-.35,2,.11,1.5.55a16,16,0,0,0-3.34,3.83c5-.55,8.94-3,12.29-4.47.67-.29,2,0,1.61.46a21.85,21.85,0,0,0-2.71,3.22C87,75,90.69,73.21,94.67,71.69c.82-.32,1.92.2,1.14.57a13,13,0,0,0-4.25,3.16c3.83-1.3,7.38-2.71,11.19-3.87.56-.17,1.49.14,1.18.47a30.27,30.27,0,0,0-2.55,2.86c2.56-.9,5-1.86,7.51-2.7.65-.21,1.3.21,1,.5-1.28,1.13-2.76,2.22-3.35,3.5,3.49-.54,6.23-2,9.23-2.87Z"/>
          </g>
          <path d="M25,75a233.24,233.24,0,0,1,25-2.74c8.33-.52,16.67-.75,25-.76s16.67.24,25,.75A230.74,230.74,0,0,1,125,75a230.74,230.74,0,0,1-25,2.75q-12.5.77-25,.75c-8.33,0-16.67-.24-25-.76A233.24,233.24,0,0,1,25,75Z" fill="none" stroke="#000" stroke-miterlimit="10"/>
        </g>
        <g>
          <g clip-path="url(#clip-path-3)">
            <path id="path144-3" data-name="path144" d="M115.23,98.31c.5-.15.93.15.71.38a15.42,15.42,0,0,0-3.35,4.54c-.19.47-1.68.28-1.45-.2A12.82,12.82,0,0,1,114,99.37c-2.74,1-5.19,2.35-8.76,2.68-.45,0-1-.1-1-.37a6.4,6.4,0,0,1,2.11-2.85c-2.15.83-4.28,1.7-6.63,2.45-.67.22-1.42-.14-1.24-.48a13.8,13.8,0,0,1,2.15-2.75c-3.62,1.26-7.1,2.69-11,3.89-.69.21-1.62-.13-1.34-.49a15.09,15.09,0,0,1,1.74-2A69,69,0,0,1,81,102.65c-.61.16-1.55,0-1.46-.39A6,6,0,0,1,80.86,100a28.19,28.19,0,0,1-11.57,3.18c-.72,0-1.12-.3-1-.59a14.48,14.48,0,0,1,2-2.67,48.24,48.24,0,0,1-13.2,3.47c-.85.09-1.5-.22-1.31-.58a10.85,10.85,0,0,1,2.79-3.06,65.6,65.6,0,0,1-13.47,3.6c-.82.12-1.65-.24-1.36-.58a13.23,13.23,0,0,1,3.21-2.69A58.15,58.15,0,0,1,33,102.61c-.7,0-1.33-.21-.9-.5A41.87,41.87,0,0,1,37.62,99c-.44.11-.88.23-1.31.36s-1.23-.12-.69-.3c1.55-.5,3.26-.87,4.79-1.37.5-.17,1.41.07.94.32a74.72,74.72,0,0,0-6.83,3.84c7.89-.72,13.94-3.24,19.86-5.14,1-.32,2.33.24,1.34.61-3.67,1.33-6.86,2.86-8.88,4.76,5.85-1.13,10.46-3.16,15.31-4.73.89-.29,2.39.11,1.63.58a19.64,19.64,0,0,0-5.35,4.35,58.28,58.28,0,0,0,14.18-4.48c.84-.35,2,.11,1.5.55a16,16,0,0,0-3.34,3.83c5-.55,8.94-3,12.29-4.47.67-.29,2,0,1.61.46A21.85,21.85,0,0,0,82,101.36c4.5-1.37,8.23-3.15,12.21-4.67.82-.32,1.92.2,1.14.57a13,13,0,0,0-4.25,3.16c3.83-1.3,7.38-2.71,11.19-3.87.56-.17,1.49.14,1.18.47a30.27,30.27,0,0,0-2.55,2.86c2.56-.9,5-1.86,7.51-2.7.65-.21,1.3.21,1,.5-1.28,1.13-2.76,2.22-3.35,3.5,3.49-.54,6.23-2,9.23-2.87Z"/>
          </g>
          <path d="M25,100a233.24,233.24,0,0,1,25-2.74c8.33-.52,16.67-.75,25-.76s16.67.24,25,.75A230.74,230.74,0,0,1,125,100a230.74,230.74,0,0,1-25,2.75q-12.5.77-25,.75c-8.33,0-16.67-.24-25-.76A233.24,233.24,0,0,1,25,100Z" fill="none" stroke="#000" stroke-miterlimit="10"/>
        </g>
      </g>
    </pattern>
  </defs>
  <title>menu_pat</title>
  <rect width="150" height="150" fill="url(#menu_pat)"/>
</svg>
