<svg id="Слой_1" data-name="Слой 1" xmlns="http://www.w3.org/2000/svg" viewBox="0 0 105.81 105.81">
  <title>plus_contur</title>
  <path d="M125,75.5a230.74,230.74,0,0,1-25,2.75q-10.75.66-21.51.74c-.07,7.17-.3,14.34-.75,21.51a233.24,233.24,0,0,1-2.74,25,233.24,233.24,0,0,1-2.74-25c-.45-7.17-.68-14.34-.75-21.51-7.17-.07-14.34-.3-21.51-.75A233.24,233.24,0,0,1,25,75.5a233.24,233.24,0,0,1,25-2.74c7.17-.45,14.34-.68,21.51-.75q.09-10.76.74-21.51A230.74,230.74,0,0,1,75,25.5a230.74,230.74,0,0,1,2.75,25q.66,10.76.74,21.51,10.76.09,21.51.74A230.74,230.74,0,0,1,125,75.5Z" transform="translate(-22.08 -22.6)" fill="none" stroke="#000" stroke-miterlimit="10"/>
</svg>
