<svg id="Слой_1" data-name="Слой 1" xmlns="http://www.w3.org/2000/svg" viewBox="0 0 100 100">
  <title>plus</title>
  <g>
    <line y1="50" x2="100" y2="50" fill="#fff"/>
    <path d="M25,75.5a233.24,233.24,0,0,1,25-2.74c8.33-.52,16.67-.75,25-.76s16.67.24,25,.75a230.74,230.74,0,0,1,25,2.75,230.74,230.74,0,0,1-25,2.75Q87.51,79,75,79c-8.33,0-16.67-.24-25-.76A233.24,233.24,0,0,1,25,75.5Z" transform="translate(-25 -25.5)"/>
  </g>
  <g>
    <line x1="50" y1="100" x2="50" fill="#fff"/>
    <path d="M75,125.5a233.24,233.24,0,0,1-2.74-25c-.52-8.33-.75-16.67-.76-25s.24-16.67.75-25A230.74,230.74,0,0,1,75,25.5a230.74,230.74,0,0,1,2.75,25q.77,12.49.75,25c0,8.33-.24,16.67-.76,25A233.24,233.24,0,0,1,75,125.5Z" transform="translate(-25 -25.5)"/>
  </g>
</svg>
